<?xml version="1.0" encoding="utf-8"?><svg version="1.1" preserveAspectRatio="xMidYMid" xml:space="preserve" width="694.85736pt" height="287.38199000000003pt" viewBox="40.90074 2.8675099999999993 694.85736 287.38199000000003" xmlns="http://www.w3.org/2000/svg" xmlns:xlink="http://www.w3.org/1999/xlink"><desc xmlns:eadoc="http://www.siemens.com/eauml/doc"><eadoc:guid>EAID_C6E208B3_B800_4338_A412_A782F062EADB</eadoc:guid><eadoc:name>Starter Class Diagram</eadoc:name><eadoc:type>Diagram</eadoc:type><eadoc:note></eadoc:note></desc><g transform="matrix(1 0 0 -1 0 841)"><g stroke="#000000" fill="none" fill-rule="evenodd" stroke-width="1" stroke-linecap="round" stroke-linejoin="round" stroke-miterlimit="3" letter-spacing="normal" font-weight="normal" font-style="normal" baseline-shift="0"><g transform="matrix(0.75 0 0 0.75 0 841.650024)"><g transform="matrix(0.958838 0 0 -0.959795 0 0)" font-family="CalibriUnicode" font-size="10"><path fill="#CACACA" stroke="none" d="M79 108C79 103 79 103 84 103H360C365 103 365 103 365 108v98C365 211 365 211 360 211H84C79 211 79 211 79 206V108" /><path stroke="none" fill="#FDFAF7" d="M76 105C76 100 76 100 81 100H357C362 100 362 100 362 105v98C362 208 362 208 357 208H81C76 208 76 208 76 203V105" /><path stroke="#5A5A5A" d="M76 105C76 100 76 100 81 100H357C362 100 362 100 362 105v98C362 208 362 208 357 208H81C76 208 76 208 76 203V105m0 0C76 100 76 100 81 100H357C362 100 362 100 362 105v98C362 208 362 208 357 208H81C76 208 76 208 76 203V105" /><rect stroke="#5A5A5A" x="76" y="100" width="286" height="108" /><text transform="matrix(1 0 0 1 176 109)" fill="#3C3C3C" font-weight="bold" stroke="none"><tspan dx="0 " x="0" y="9">T</tspan><tspan dx="0 " x="5.333333" y="9">e</tspan><tspan dx="0 " x="10.66667" y="9">r</tspan><tspan dx="0 " x="14" y="9">m</tspan><tspan dx="0 " x="22.33333" y="9">i</tspan><tspan dx="0 " x="24.66666" y="9">n</tspan><tspan dx="0 " x="30.33333" y="9">a</tspan><tspan dx="0 " x="35.66666" y="9">l</tspan><tspan dx="0 " x="38" y="9">A</tspan><tspan dx="0 " x="44.33333" y="9">b</tspan><tspan dx="0 " x="50" y="9">s</tspan><tspan dx="0 " x="53.66666" y="9">t</tspan><tspan dx="0 " x="57" y="9">r</tspan><tspan dx="0 " x="60.33333" y="9">a</tspan><tspan dx="0 " x="65.33333" y="9">c</tspan><tspan dx="0 0 " x="69.66666" y="9">ti</tspan><tspan dx="0 " x="75.33333" y="9">o</tspan><tspan dx="0 " x="80.66666" y="9">n</tspan></text><path stroke="#5A5A5A" d="M76 127H362" /><text transform="matrix(1 0 0 1 81 131)" fill="#854A2C" stroke="none"><tspan dx="0 " x="0" y="9">- </tspan></text><text transform="matrix(1 0 0 1 98 131)" fill="#854A2C" stroke="none"><tspan dx="0 " x="0" y="9">t</tspan><tspan dx="0 " x="3.333333" y="9">r</tspan><tspan dx="0 " x="6.666666" y="9">a</tspan><tspan dx="0 " x="12" y="9">n</tspan><tspan dx="0 " x="17.66667" y="9">s</tspan><tspan dx="0 " x="21.33333" y="9">a</tspan><tspan dx="0 " x="26.66666" y="9">c</tspan><tspan dx="0 0 " x="31.33333" y="9">ti</tspan><tspan dx="0 " x="37" y="9">o</tspan><tspan dx="0 " x="42.66667" y="9">n</tspan><tspan dx="0 " x="48.33334" y="9">F</tspan><tspan dx="0 " x="53.33334" y="9">a</tspan><tspan dx="0 " x="58.66667" y="9">c</tspan><tspan dx="0 " x="63" y="9">t</tspan><tspan dx="0 " x="66.33334" y="9">o</tspan><tspan dx="0 " x="71.66667" y="9">r</tspan><tspan dx="0 " x="75.00001" y="9">y</tspan><tspan dx="0 " x="79.66667" y="9">:</tspan><tspan dx="0 " x="82.33334" y="9"> </tspan><tspan dx="0 " x="84.33334" y="9">I</tspan><tspan dx="0 " x="86.66667" y="9">A</tspan><tspan dx="0 " x="92.66667" y="9">b</tspan><tspan dx="0 " x="98.00001" y="9">s</tspan><tspan dx="0 " x="101.6667" y="9">t</tspan><tspan dx="0 " x="105" y="9">r</tspan><tspan dx="0 " x="108.3333" y="9">a</tspan><tspan dx="0 " x="113.3333" y="9">c</tspan><tspan dx="0 " x="117.6667" y="9">t</tspan><tspan dx="0 " x="121" y="9">T</tspan><tspan dx="0 " x="126" y="9">e</tspan><tspan dx="0 " x="131" y="9">r</tspan><tspan dx="0 " x="134.3333" y="9">m</tspan><tspan dx="0 " x="142.3333" y="9">i</tspan><tspan dx="0 " x="144.6667" y="9">n</tspan><tspan dx="0 " x="150" y="9">a</tspan><tspan dx="0 " x="155" y="9">l</tspan><tspan dx="0 " x="157.3333" y="9">T</tspan><tspan dx="0 " x="162.3333" y="9">r</tspan><tspan dx="0 " x="165.6667" y="9">a</tspan><tspan dx="0 " x="170.6667" y="9">n</tspan><tspan dx="0 " x="176" y="9">s</tspan><tspan dx="0 " x="179.6667" y="9">a</tspan><tspan dx="0 " x="184.6667" y="9">c</tspan><tspan dx="0 0 " x="189" y="9">ti</tspan><tspan dx="0 " x="194.6667" y="9">o</tspan><tspan dx="0 " x="200" y="9">n</tspan><tspan dx="0 " x="205.3333" y="9">F</tspan><tspan dx="0 " x="210" y="9">a</tspan><tspan dx="0 " x="215" y="9">c</tspan><tspan dx="0 " x="219.3333" y="9">t</tspan><tspan dx="0 " x="222.6666" y="9">o</tspan><tspan dx="0 " x="228" y="9">r</tspan><tspan dx="0 " x="231.3333" y="9">y</tspan></text><path stroke="#5A5A5A" d="M76 148H362" /><text transform="matrix(1 0 0 1 81 152)" fill="#375B1F" stroke="none"><tspan dx="0 " x="0" y="9">+ </tspan></text><text transform="matrix(1 0 0 1 98 152)" fill="#375B1F" stroke="none"><tspan dx="0 " x="0" y="9">i</tspan><tspan dx="0 " x="2.333333" y="9">n</tspan><tspan dx="0 " x="8" y="9">i</tspan><tspan dx="0 0 " x="10.33333" y="9">ti</tspan><tspan dx="0 " x="16" y="9">a</tspan><tspan dx="0 " x="21.33333" y="9">t</tspan><tspan dx="0 " x="24.66666" y="9">e</tspan><tspan dx="0 " x="30" y="9">T</tspan><tspan dx="0 " x="35.33333" y="9">r</tspan><tspan dx="0 " x="38.66666" y="9">a</tspan><tspan dx="0 " x="43.99999" y="9">n</tspan><tspan dx="0 " x="49.66666" y="9">s</tspan><tspan dx="0 " x="53.33333" y="9">a</tspan><tspan dx="0 " x="58.33333" y="9">c</tspan><tspan dx="0 0 " x="62.66666" y="9">ti</tspan><tspan dx="0 " x="68.33333" y="9">o</tspan><tspan dx="0 " x="73.66666" y="9">n</tspan><tspan dx="0 " x="79" y="9">(</tspan><tspan dx="0 " x="82" y="9">L</tspan><tspan dx="0 " x="86.33334" y="9">i</tspan><tspan dx="0 " x="88.66667" y="9">s</tspan><tspan dx="0 " x="92.33334" y="9">t</tspan><tspan dx="0 " x="95.66667" y="9">,</tspan><tspan dx="0 " x="98.00001" y="9"> </tspan><tspan dx="0 " x="100" y="9">d</tspan><tspan dx="0 " x="105.3333" y="9">o</tspan><tspan dx="0 " x="110.6667" y="9">u</tspan><tspan dx="0 " x="116" y="9">b</tspan><tspan dx="0 " x="121.3334" y="9">l</tspan><tspan dx="0 " x="123.6667" y="9">e</tspan><tspan dx="0 " x="128.6667" y="9">,</tspan><tspan dx="0 " x="131" y="9"> </tspan><tspan dx="0 " x="133" y="9">T</tspan><tspan dx="0 " x="138" y="9">r</tspan><tspan dx="0 " x="141.3333" y="9">a</tspan><tspan dx="0 " x="146.3333" y="9">n</tspan><tspan dx="0 " x="151.6667" y="9">s</tspan><tspan dx="0 " x="155.3333" y="9">a</tspan><tspan dx="0 " x="160.3333" y="9">c</tspan><tspan dx="0 0 " x="164.6667" y="9">ti</tspan><tspan dx="0 " x="170.3333" y="9">o</tspan><tspan dx="0 " x="175.6667" y="9">n</tspan><tspan dx="0 " x="181" y="9">T</tspan><tspan dx="0 " x="186" y="9">y</tspan><tspan dx="0 " x="190.6667" y="9">p</tspan><tspan dx="0 " x="196" y="9">e</tspan><tspan dx="0 " x="201" y="9">E</tspan><tspan dx="0 " x="206" y="9">n</tspan><tspan dx="0 " x="211.3333" y="9">u</tspan><tspan dx="0 " x="216.6667" y="9">m</tspan><tspan dx="0 " x="224.6667" y="9">)</tspan><tspan dx="0 " x="227.6667" y="9">:</tspan><tspan dx="0 " x="230.3333" y="9"> </tspan><tspan dx="0 " x="232.3333" y="9">v</tspan><tspan dx="0 " x="237" y="9">o</tspan><tspan dx="0 " x="242.3333" y="9">i</tspan><tspan dx="0 " x="244.6667" y="9">d</tspan></text><text transform="matrix(1 0 0 1 81 165)" fill="#375B1F" stroke="none"><tspan dx="0 " x="0" y="9">+ </tspan></text><text transform="matrix(1 0 0 1 98 165)" fill="#375B1F" stroke="none"><tspan dx="0 " x="0" y="9">T</tspan><tspan dx="0 " x="5.333333" y="9">e</tspan><tspan dx="0 " x="10.66667" y="9">r</tspan><tspan dx="0 " x="14" y="9">m</tspan><tspan dx="0 " x="22.33333" y="9">i</tspan><tspan dx="0 " x="24.66666" y="9">n</tspan><tspan dx="0 " x="30.33333" y="9">a</tspan><tspan dx="0 " x="35.33333" y="9">l</tspan><tspan dx="0 " x="37.66666" y="9">A</tspan><tspan dx="0 " x="43.66666" y="9">b</tspan><tspan dx="0 " x="49" y="9">s</tspan><tspan dx="0 " x="52.66666" y="9">t</tspan><tspan dx="0 " x="56" y="9">r</tspan><tspan dx="0 " x="59.33333" y="9">a</tspan><tspan dx="0 " x="64.33333" y="9">c</tspan><tspan dx="0 0 " x="68.66666" y="9">ti</tspan><tspan dx="0 " x="74.33333" y="9">o</tspan><tspan dx="0 " x="79.66666" y="9">n</tspan><tspan dx="0 " x="85" y="9">(</tspan><tspan dx="0 " x="88" y="9">I</tspan><tspan dx="0 " x="90.33334" y="9">A</tspan><tspan dx="0 " x="96.33334" y="9">b</tspan><tspan dx="0 " x="101.6667" y="9">s</tspan><tspan dx="0 " x="105.3333" y="9">t</tspan><tspan dx="0 " x="108.6667" y="9">r</tspan><tspan dx="0 " x="112" y="9">a</tspan><tspan dx="0 " x="117" y="9">c</tspan><tspan dx="0 " x="121.3333" y="9">t</tspan><tspan dx="0 " x="124.6667" y="9">T</tspan><tspan dx="0 " x="129.6667" y="9">e</tspan><tspan dx="0 " x="134.6667" y="9">r</tspan><tspan dx="0 " x="138" y="9">m</tspan><tspan dx="0 " x="146" y="9">i</tspan><tspan dx="0 " x="148.3333" y="9">n</tspan><tspan dx="0 " x="153.6667" y="9">a</tspan><tspan dx="0 " x="158.6667" y="9">l</tspan><tspan dx="0 " x="161" y="9">T</tspan><tspan dx="0 " x="166" y="9">r</tspan><tspan dx="0 " x="169.3333" y="9">a</tspan><tspan dx="0 " x="174.3333" y="9">n</tspan><tspan dx="0 " x="179.6667" y="9">s</tspan><tspan dx="0 " x="183.3333" y="9">a</tspan><tspan dx="0 " x="188.3333" y="9">c</tspan><tspan dx="0 0 " x="192.6667" y="9">ti</tspan><tspan dx="0 " x="198.3333" y="9">o</tspan><tspan dx="0 " x="203.6667" y="9">n</tspan><tspan dx="0 " x="209" y="9">F</tspan><tspan dx="0 " x="213.6667" y="9">a</tspan><tspan dx="0 " x="218.6667" y="9">c</tspan></text><text transform="matrix(1 0 0 1 321 165)" fill="#375B1F" stroke="none"><tspan dx="0 " x="0" y="9">tory): void</tspan></text><path fill="#CACACA" stroke="none" d="M177 24C177 19 177 19 182 19h79C266 19 266 19 266 24V41C266 46 266 46 261 46H182C177 46 177 46 177 41V24" /><path stroke="none" fill="#FDFAF7" d="M174 21C174 16 174 16 179 16h79C263 16 263 16 263 21V38C263 43 263 43 258 43H179C174 43 174 43 174 38V21" /><path stroke="#5A5A5A" d="M174 21C174 16 174 16 179 16h79C263 16 263 16 263 21V38C263 43 263 43 258 43H179C174 43 174 43 174 38V21m0 0C174 16 174 16 179 16h79C263 16 263 16 263 21V38C263 43 263 43 258 43H179C174 43 174 43 174 38V21" /><rect stroke="#5A5A5A" x="174" y="16" width="89" height="27" /><text transform="matrix(1 0 0 1 207 25)" fill="#3C3C3C" font-weight="bold" stroke="none"><desc xmlns:eadoc="http://www.siemens.com/eauml/doc"><eadoc:guid>EAID_D0C5781A_6DB0_48e4_AA92_7EFB7F1B813D</eadoc:guid><eadoc:name>Client</eadoc:name><eadoc:type>Class</eadoc:type><eadoc:note></eadoc:note></desc><tspan dx="0 " x="0" y="9">Client</tspan></text><path fill="#CACACA" stroke="none" d="M423 118C423 113 423 113 428 113H712C717 113 717 113 717 118v79C717 202 717 202 712 202H428C423 202 423 202 423 197V118" /><path stroke="none" fill="#F1ECFA" d="M420 115C420 110 420 110 425 110H709C714 110 714 110 714 115v79C714 199 714 199 709 199H425C420 199 420 199 420 194V115" /><path stroke="#5A5A5A" d="M420 115C420 110 420 110 425 110H709C714 110 714 110 714 115v79C714 199 714 199 709 199H425C420 199 420 199 420 194V115m0 0C420 110 420 110 425 110H709C714 110 714 110 714 115v79C714 199 714 199 709 199H425C420 199 420 199 420 194V115" /><rect stroke="#5A5A5A" x="420" y="110" width="294" height="89" /><text transform="matrix(1 0 0 1 545 116)" fill="#3C3C3C" stroke="none"><tspan dx="0 " x="0" y="9">«interface»</tspan></text><text transform="matrix(1 0 0 1 489 129)" fill="#3C3C3C" font-weight="bold" stroke="none"><tspan dx="0 " x="0" y="9">I</tspan><tspan dx="0 " x="2.666667" y="9">A</tspan><tspan dx="0 " x="9" y="9">b</tspan><tspan dx="0 " x="14.66667" y="9">s</tspan><tspan dx="0 " x="18.33333" y="9">t</tspan><tspan dx="0 " x="21.66667" y="9">r</tspan><tspan dx="0 " x="25" y="9">a</tspan><tspan dx="0 " x="30.33333" y="9">c</tspan><tspan dx="0 " x="34.66666" y="9">t</tspan><tspan dx="0 " x="38" y="9">T</tspan><tspan dx="0 " x="43.33333" y="9">e</tspan><tspan dx="0 " x="48.66666" y="9">r</tspan><tspan dx="0 " x="51.99999" y="9">m</tspan><tspan dx="0 " x="60.33332" y="9">i</tspan><tspan dx="0 " x="62.66666" y="9">n</tspan><tspan dx="0 " x="68.33332" y="9">a</tspan><tspan dx="0 " x="73.66666" y="9">l</tspan><tspan dx="0 " x="75.99999" y="9">T</tspan><tspan dx="0 " x="81.33333" y="9">r</tspan><tspan dx="0 " x="84.66666" y="9">a</tspan><tspan dx="0 " x="90" y="9">n</tspan><tspan dx="0 " x="95.66666" y="9">s</tspan><tspan dx="0 " x="99.33333" y="9">a</tspan><tspan dx="0 " x="104.6667" y="9">c</tspan><tspan dx="0 0 " x="109" y="9">ti</tspan><tspan dx="0 " x="114.6667" y="9">o</tspan><tspan dx="0 " x="120.3333" y="9">n</tspan><tspan dx="0 " x="126" y="9">F</tspan><tspan dx="0 " x="130.6667" y="9">a</tspan><tspan dx="0 " x="135.6667" y="9">c</tspan><tspan dx="0 " x="140" y="9">t</tspan><tspan dx="0 " x="143.3333" y="9">o</tspan><tspan dx="0 " x="148.6666" y="9">r</tspan><tspan dx="0 " x="152" y="9">y</tspan></text><path stroke="#5A5A5A" d="M420 148H714" /><text transform="matrix(1 0 0 1 425 152)" fill="#375B1F" stroke="none"><tspan dx="0 " x="0" y="9">+ </tspan></text><text transform="matrix(1 0 0 1 442 152)" fill="#375B1F" stroke="none"><tspan dx="0 " x="0" y="9">c</tspan><tspan dx="0 " x="4.666667" y="9">r</tspan><tspan dx="0 " x="8" y="9">e</tspan><tspan dx="0 " x="13.33333" y="9">a</tspan><tspan dx="0 " x="18.66667" y="9">t</tspan><tspan dx="0 " x="22" y="9">e</tspan><tspan dx="0 " x="27.33333" y="9">T</tspan><tspan dx="0 " x="32.66666" y="9">r</tspan><tspan dx="0 " x="36" y="9">a</tspan><tspan dx="0 " x="41.33333" y="9">n</tspan><tspan dx="0 " x="47" y="9">s</tspan><tspan dx="0 " x="50.66666" y="9">a</tspan><tspan dx="0 " x="56" y="9">c</tspan><tspan dx="0 0 " x="60.66666" y="9">ti</tspan><tspan dx="0 " x="66.33333" y="9">o</tspan><tspan dx="0 " x="71.66666" y="9">n</tspan><tspan dx="0 " x="77" y="9">(</tspan><tspan dx="0 " x="80" y="9">L</tspan><tspan dx="0 " x="84.33334" y="9">i</tspan><tspan dx="0 " x="86.66667" y="9">s</tspan><tspan dx="0 " x="90.33334" y="9">t</tspan><tspan dx="0 " x="93.66667" y="9">,</tspan><tspan dx="0 " x="96.00001" y="9"> </tspan><tspan dx="0 " x="98.00001" y="9">T</tspan><tspan dx="0 " x="103" y="9">r</tspan><tspan dx="0 " x="106.3333" y="9">a</tspan><tspan dx="0 " x="111.3333" y="9">n</tspan><tspan dx="0 " x="116.6667" y="9">s</tspan><tspan dx="0 " x="120.3333" y="9">a</tspan><tspan dx="0 " x="125.3333" y="9">c</tspan><tspan dx="0 0 " x="129.6667" y="9">ti</tspan><tspan dx="0 " x="135.3333" y="9">o</tspan><tspan dx="0 " x="140.6667" y="9">n</tspan><tspan dx="0 " x="146" y="9">T</tspan><tspan dx="0 " x="151" y="9">y</tspan><tspan dx="0 " x="155.6667" y="9">p</tspan><tspan dx="0 " x="161" y="9">e</tspan><tspan dx="0 " x="166" y="9">E</tspan><tspan dx="0 " x="171" y="9">n</tspan><tspan dx="0 " x="176.3333" y="9">u</tspan><tspan dx="0 " x="181.6667" y="9">m</tspan><tspan dx="0 " x="189.6667" y="9">,</tspan><tspan dx="0 " x="192" y="9"> </tspan></text><text transform="matrix(1 0 0 1 636 152)" fill="#375B1F" stroke="none"><tspan dx="0 " x="0" y="9">d</tspan><tspan dx="0 " x="4.333333" y="9">o</tspan><tspan dx="0 " x="8.666666" y="9">u</tspan><tspan dx="0 " x="13" y="9">b</tspan><tspan dx="0 " x="17.33333" y="9">l</tspan><tspan dx="0 " x="19" y="9">e</tspan><tspan dx="0 " x="23" y="9">)</tspan><tspan dx="0 " x="25.33333" y="9">:</tspan><tspan dx="0 " x="27.33333" y="9"> </tspan><tspan dx="0 " x="28.33333" y="9">I</tspan><tspan dx="0 " x="30" y="9">T</tspan><tspan dx="0 " x="34.33333" y="9">r</tspan><tspan dx="0 " x="37.33333" y="9">a</tspan><tspan dx="0 " x="41.66666" y="9">n</tspan><tspan dx="0 " x="46.33333" y="9">s</tspan><tspan dx="0 " x="49.66666" y="9">a</tspan><tspan dx="0 " x="54" y="9">c</tspan><tspan dx="0 0 " x="57.66666" y="9">ti</tspan><tspan dx="0 " x="62.66666" y="9">o</tspan><tspan dx="0 " x="67.33333" y="9">n</tspan></text><text transform="matrix(1 0 0 1 425 165)" fill="#375B1F" stroke="none"><tspan dx="0 " x="0" y="9">+ </tspan></text><text transform="matrix(1 0 0 1 442 165)" fill="#375B1F" stroke="none"><tspan dx="0 " x="0" y="9">createTerminal(): ITerminal</tspan></text><path fill="#CACACA" stroke="none" d="M71 277C71 272 71 272 76 272H360C365 272 365 272 365 277V388C365 393 365 393 360 393H76C71 393 71 393 71 388V277" /><path stroke="none" fill="#FDFAF7" d="M68 274C68 269 68 269 73 269H357C362 269 362 269 362 274V385C362 390 362 390 357 390H73C68 390 68 390 68 385V274" /><path stroke="#5A5A5A" d="M68 274C68 269 68 269 73 269H357C362 269 362 269 362 274V385C362 390 362 390 357 390H73C68 390 68 390 68 385V274m0 0C68 269 68 269 73 269H357C362 269 362 269 362 274V385C362 390 362 390 357 390H73C68 390 68 390 68 385V274" /><rect stroke="#5A5A5A" x="68" y="269" width="294" height="121" /><text transform="matrix(1 0 0 1 189 278)" fill="#3C3C3C" font-weight="bold" stroke="none"><desc xmlns:eadoc="http://www.siemens.com/eauml/doc"><eadoc:guid>EAID_468E3CA7_8CC1_4639_BCF9_FB9E20505CEE</eadoc:guid><eadoc:name>ATMFactory</eadoc:name><eadoc:type>Class</eadoc:type><eadoc:note></eadoc:note></desc><tspan dx="0 " x="0" y="9">ATMFactory</tspan></text><path stroke="#5A5A5A" d="M68 296H362" /><text transform="matrix(1 0 0 1 73 300)" fill="#854A2C" stroke="none"><tspan dx="0 " x="0" y="9">- </tspan></text><text transform="matrix(1 0 0 1 90 300)" fill="#854A2C" stroke="none"><tspan dx="0 " x="0" y="9">t</tspan><tspan dx="0 " x="3.333333" y="9">r</tspan><tspan dx="0 " x="6.666666" y="9">a</tspan><tspan dx="0 " x="11.33333" y="9">n</tspan><tspan dx="0 " x="16.33333" y="9">s</tspan><tspan dx="0 " x="20" y="9">a</tspan><tspan dx="0 " x="24.66667" y="9">c</tspan><tspan dx="0 0 " x="29" y="9">ti</tspan><tspan dx="0 " x="34.66667" y="9">o</tspan><tspan dx="0 " x="40" y="9">n</tspan><tspan dx="0 " x="45.33333" y="9">B</tspan><tspan dx="0 " x="51" y="9">u</tspan><tspan dx="0 " x="56.33333" y="9">i</tspan><tspan dx="0 " x="58.66666" y="9">l</tspan><tspan dx="0 " x="61" y="9">d</tspan><tspan dx="0 " x="66.33333" y="9">e</tspan><tspan dx="0 " x="71.33333" y="9">r</tspan><tspan dx="0 " x="74.66666" y="9">:</tspan><tspan dx="0 " x="77.33333" y="9"> </tspan><tspan dx="0 " x="79.33333" y="9">I</tspan><tspan dx="0 " x="81.66666" y="9">T</tspan><tspan dx="0 " x="86.66666" y="9">r</tspan><tspan dx="0 " x="90" y="9">a</tspan><tspan dx="0 " x="95" y="9">n</tspan><tspan dx="0 " x="100.3333" y="9">s</tspan><tspan dx="0 " x="104" y="9">a</tspan><tspan dx="0 " x="109" y="9">c</tspan><tspan dx="0 0 " x="113.3333" y="9">ti</tspan><tspan dx="0 " x="119" y="9">o</tspan><tspan dx="0 " x="124.3333" y="9">n</tspan><tspan dx="0 " x="129.6667" y="9">B</tspan><tspan dx="0 " x="135.3333" y="9">u</tspan><tspan dx="0 " x="140.6667" y="9">i</tspan><tspan dx="0 " x="143" y="9">l</tspan><tspan dx="0 " x="145.3333" y="9">d</tspan><tspan dx="0 " x="150.6667" y="9">e</tspan><tspan dx="0 " x="155.6667" y="9">r</tspan></text><path stroke="#5A5A5A" d="M68 317H362" /><text transform="matrix(1 0 0 1 73 321)" fill="#375B1F" stroke="none"><tspan dx="0 " x="0" y="9">+ </tspan></text><text transform="matrix(1 0 0 1 90 321)" fill="#375B1F" stroke="none"><tspan dx="0 " x="0" y="9">c</tspan><tspan dx="0 " x="4.666667" y="9">r</tspan><tspan dx="0 " x="8" y="9">e</tspan><tspan dx="0 " x="13.33333" y="9">a</tspan><tspan dx="0 " x="18.66667" y="9">t</tspan><tspan dx="0 " x="22" y="9">e</tspan><tspan dx="0 " x="27.33333" y="9">T</tspan><tspan dx="0 " x="32.66666" y="9">r</tspan><tspan dx="0 " x="36" y="9">a</tspan><tspan dx="0 " x="41.33333" y="9">n</tspan><tspan dx="0 " x="46.66666" y="9">s</tspan><tspan dx="0 " x="50.33333" y="9">a</tspan><tspan dx="0 " x="55.33333" y="9">c</tspan><tspan dx="0 0 " x="59.66666" y="9">ti</tspan><tspan dx="0 " x="65.33333" y="9">o</tspan><tspan dx="0 " x="70.66666" y="9">n</tspan><tspan dx="0 " x="76" y="9">(</tspan><tspan dx="0 " x="79" y="9">L</tspan><tspan dx="0 " x="83.33334" y="9">i</tspan><tspan dx="0 " x="85.66667" y="9">s</tspan><tspan dx="0 " x="89.33334" y="9">t</tspan><tspan dx="0 " x="92.66667" y="9">,</tspan><tspan dx="0 " x="95.00001" y="9"> </tspan><tspan dx="0 " x="97.00001" y="9">d</tspan><tspan dx="0 " x="102.3333" y="9">o</tspan><tspan dx="0 " x="107.6667" y="9">u</tspan><tspan dx="0 " x="113" y="9">b</tspan><tspan dx="0 " x="118.3334" y="9">l</tspan><tspan dx="0 " x="120.6667" y="9">e</tspan><tspan dx="0 " x="125.6667" y="9">,</tspan><tspan dx="0 " x="128" y="9"> </tspan><tspan dx="0 " x="130" y="9">T</tspan><tspan dx="0 " x="135" y="9">r</tspan><tspan dx="0 " x="138.3333" y="9">a</tspan><tspan dx="0 " x="143.3333" y="9">n</tspan><tspan dx="0 " x="148.6667" y="9">s</tspan><tspan dx="0 " x="152.3333" y="9">a</tspan><tspan dx="0 " x="157.3333" y="9">c</tspan><tspan dx="0 0 " x="161.6667" y="9">ti</tspan><tspan dx="0 " x="167.3333" y="9">o</tspan><tspan dx="0 " x="172.6667" y="9">n</tspan><tspan dx="0 " x="178" y="9">T</tspan><tspan dx="0 " x="183" y="9">y</tspan><tspan dx="0 " x="187.6667" y="9">p</tspan></text><text transform="matrix(1 0 0 1 283 321)" fill="#375B1F" stroke="none"><tspan dx="0 " x="0" y="9">e</tspan><tspan dx="0 " x="4" y="9">E</tspan><tspan dx="0 " x="8" y="9">n</tspan><tspan dx="0 " x="12.33333" y="9">u</tspan><tspan dx="0 " x="16.66667" y="9">m</tspan><tspan dx="0 " x="23.66667" y="9">)</tspan><tspan dx="0 " x="26" y="9">:</tspan><tspan dx="0 " x="28" y="9"> </tspan><tspan dx="0 " x="29" y="9">I</tspan><tspan dx="0 " x="30.66667" y="9">T</tspan><tspan dx="0 " x="35" y="9">r</tspan><tspan dx="0 " x="38" y="9">a</tspan><tspan dx="0 " x="42.33333" y="9">n</tspan><tspan dx="0 " x="47" y="9">s</tspan><tspan dx="0 " x="50.33333" y="9">a</tspan><tspan dx="0 " x="54.66666" y="9">c</tspan><tspan dx="0 0 " x="58.66666" y="9">ti</tspan><tspan dx="0 " x="63.66666" y="9">o</tspan><tspan dx="0 " x="68.33333" y="9">n</tspan></text><text transform="matrix(1 0 0 1 73 334)" fill="#375B1F" stroke="none"><tspan dx="0 " x="0" y="9">+ </tspan></text><text transform="matrix(1 0 0 1 90 334)" fill="#375B1F" stroke="none"><tspan dx="0 " x="0" y="9">createTerminal(): ITerminal</tspan></text><text transform="matrix(1 0 0 1 73 347)" fill="#375B1F" stroke="none"><tspan dx="0 " x="0" y="9">- </tspan></text><text transform="matrix(1 0 0 1 90 347)" fill="#375B1F" stroke="none"><tspan dx="0 " x="0" y="9">setAccounts(List): void</tspan></text><text transform="matrix(1 0 0 1 73 360)" fill="#375B1F" stroke="none"><tspan dx="0 " x="0" y="9">- </tspan></text><text transform="matrix(1 0 0 1 90 360)" fill="#375B1F" stroke="none"><tspan dx="0 " x="0" y="9">setAmount(double): void</tspan></text><text transform="matrix(1 0 0 1 73 373)" fill="#375B1F" stroke="none"><tspan dx="0 " x="0" y="9">- </tspan></text><text transform="matrix(1 0 0 1 90 373)" fill="#375B1F" stroke="none"><tspan dx="0 " x="0" y="9">g</tspan><tspan dx="0 " x="5.333333" y="9">e</tspan><tspan dx="0 " x="10.66667" y="9">t</tspan><tspan dx="0 " x="14" y="9">T</tspan><tspan dx="0 " x="19.33333" y="9">r</tspan><tspan dx="0 " x="22.66666" y="9">a</tspan><tspan dx="0 " x="28" y="9">n</tspan><tspan dx="0 " x="33.66666" y="9">s</tspan><tspan dx="0 " x="37.33333" y="9">a</tspan><tspan dx="0 " x="42.33333" y="9">c</tspan><tspan dx="0 0 " x="46.66666" y="9">ti</tspan><tspan dx="0 " x="52.33333" y="9">o</tspan><tspan dx="0 " x="57.66666" y="9">n</tspan><tspan dx="0 " x="63" y="9">(</tspan><tspan dx="0 " x="66" y="9">)</tspan><tspan dx="0 " x="69" y="9">:</tspan><tspan dx="0 " x="71.66666" y="9"> </tspan><tspan dx="0 " x="73.66666" y="9">I</tspan><tspan dx="0 " x="76" y="9">T</tspan><tspan dx="0 " x="81" y="9">r</tspan><tspan dx="0 " x="84.33334" y="9">a</tspan><tspan dx="0 " x="89.33334" y="9">n</tspan><tspan dx="0 " x="94.66667" y="9">s</tspan><tspan dx="0 " x="98.33334" y="9">a</tspan><tspan dx="0 " x="103.3333" y="9">c</tspan><tspan dx="0 0 " x="107.6667" y="9">ti</tspan><tspan dx="0 " x="113.3333" y="9">o</tspan><tspan dx="0 " x="118.6667" y="9">n</tspan></text><path fill="#CACACA" stroke="none" d="M395 277C395 272 395 272 400 272H684C689 272 689 272 689 277V388C689 393 689 393 684 393H400C395 393 395 393 395 388V277" /><path stroke="none" fill="#FDFAF7" d="M392 274C392 269 392 269 397 269H681C686 269 686 269 686 274V385C686 390 686 390 681 390H397C392 390 392 390 392 385V274" /><path stroke="#5A5A5A" d="M392 274C392 269 392 269 397 269H681C686 269 686 269 686 274V385C686 390 686 390 681 390H397C392 390 392 390 392 385V274m0 0C392 269 392 269 397 269H681C686 269 686 269 686 274V385C686 390 686 390 681 390H397C392 390 392 390 392 385V274" /><rect stroke="#5A5A5A" x="392" y="269" width="294" height="121" /><text transform="matrix(1 0 0 1 514 278)" fill="#3C3C3C" font-weight="bold" stroke="none"><desc xmlns:eadoc="http://www.siemens.com/eauml/doc"><eadoc:guid>EAID_2BF3FABE_C253_44ce_8E1D_0022830F2192</eadoc:guid><eadoc:name>POSFactory</eadoc:name><eadoc:type>Class</eadoc:type><eadoc:note></eadoc:note></desc><tspan dx="0 " x="0" y="9">POSFactory</tspan></text><path stroke="#5A5A5A" d="M392 296H686" /><text transform="matrix(1 0 0 1 397 300)" fill="#854A2C" stroke="none"><tspan dx="0 " x="0" y="9">- </tspan></text><text transform="matrix(1 0 0 1 414 300)" fill="#854A2C" stroke="none"><tspan dx="0 " x="0" y="9">t</tspan><tspan dx="0 " x="3.333333" y="9">r</tspan><tspan dx="0 " x="6.666666" y="9">a</tspan><tspan dx="0 " x="11.33333" y="9">n</tspan><tspan dx="0 " x="16.33333" y="9">s</tspan><tspan dx="0 " x="20" y="9">a</tspan><tspan dx="0 " x="24.66667" y="9">c</tspan><tspan dx="0 0 " x="29" y="9">ti</tspan><tspan dx="0 " x="34.66667" y="9">o</tspan><tspan dx="0 " x="40" y="9">n</tspan><tspan dx="0 " x="45.33333" y="9">B</tspan><tspan dx="0 " x="51" y="9">u</tspan><tspan dx="0 " x="56.33333" y="9">i</tspan><tspan dx="0 " x="58.66666" y="9">l</tspan><tspan dx="0 " x="61" y="9">d</tspan><tspan dx="0 " x="66.33333" y="9">e</tspan><tspan dx="0 " x="71.33333" y="9">r</tspan><tspan dx="0 " x="74.66666" y="9">:</tspan><tspan dx="0 " x="77.33333" y="9"> </tspan><tspan dx="0 " x="79.33333" y="9">I</tspan><tspan dx="0 " x="81.66666" y="9">T</tspan><tspan dx="0 " x="86.66666" y="9">r</tspan><tspan dx="0 " x="90" y="9">a</tspan><tspan dx="0 " x="95" y="9">n</tspan><tspan dx="0 " x="100.3333" y="9">s</tspan><tspan dx="0 " x="104" y="9">a</tspan><tspan dx="0 " x="109" y="9">c</tspan><tspan dx="0 0 " x="113.3333" y="9">ti</tspan><tspan dx="0 " x="119" y="9">o</tspan><tspan dx="0 " x="124.3333" y="9">n</tspan><tspan dx="0 " x="129.6667" y="9">B</tspan><tspan dx="0 " x="135.3333" y="9">u</tspan><tspan dx="0 " x="140.6667" y="9">i</tspan><tspan dx="0 " x="143" y="9">l</tspan><tspan dx="0 " x="145.3333" y="9">d</tspan><tspan dx="0 " x="150.6667" y="9">e</tspan><tspan dx="0 " x="155.6667" y="9">r</tspan></text><path stroke="#5A5A5A" d="M392 317H686" /><text transform="matrix(1 0 0 1 397 321)" fill="#375B1F" stroke="none"><tspan dx="0 " x="0" y="9">+ </tspan></text><text transform="matrix(1 0 0 1 414 321)" fill="#375B1F" stroke="none"><tspan dx="0 " x="0" y="9">c</tspan><tspan dx="0 " x="4.666667" y="9">r</tspan><tspan dx="0 " x="8" y="9">e</tspan><tspan dx="0 " x="13.33333" y="9">a</tspan><tspan dx="0 " x="18.66667" y="9">t</tspan><tspan dx="0 " x="22" y="9">e</tspan><tspan dx="0 " x="27.33333" y="9">T</tspan><tspan dx="0 " x="32.66666" y="9">r</tspan><tspan dx="0 " x="36" y="9">a</tspan><tspan dx="0 " x="41.33333" y="9">n</tspan><tspan dx="0 " x="46.66666" y="9">s</tspan><tspan dx="0 " x="50.33333" y="9">a</tspan><tspan dx="0 " x="55.33333" y="9">c</tspan><tspan dx="0 0 " x="59.66666" y="9">ti</tspan><tspan dx="0 " x="65.33333" y="9">o</tspan><tspan dx="0 " x="70.66666" y="9">n</tspan><tspan dx="0 " x="76" y="9">(</tspan><tspan dx="0 " x="79" y="9">L</tspan><tspan dx="0 " x="83.33334" y="9">i</tspan><tspan dx="0 " x="85.66667" y="9">s</tspan><tspan dx="0 " x="89.33334" y="9">t</tspan><tspan dx="0 " x="92.66667" y="9">,</tspan><tspan dx="0 " x="95.00001" y="9"> </tspan><tspan dx="0 " x="97.00001" y="9">d</tspan><tspan dx="0 " x="102.3333" y="9">o</tspan><tspan dx="0 " x="107.6667" y="9">u</tspan><tspan dx="0 " x="113" y="9">b</tspan><tspan dx="0 " x="118.3334" y="9">l</tspan><tspan dx="0 " x="120.6667" y="9">e</tspan><tspan dx="0 " x="125.6667" y="9">,</tspan><tspan dx="0 " x="128" y="9"> </tspan><tspan dx="0 " x="130" y="9">T</tspan><tspan dx="0 " x="135" y="9">r</tspan><tspan dx="0 " x="138.3333" y="9">a</tspan><tspan dx="0 " x="143.3333" y="9">n</tspan><tspan dx="0 " x="148.6667" y="9">s</tspan><tspan dx="0 " x="152.3333" y="9">a</tspan><tspan dx="0 " x="157.3333" y="9">c</tspan><tspan dx="0 0 " x="161.6667" y="9">ti</tspan><tspan dx="0 " x="167.3333" y="9">o</tspan><tspan dx="0 " x="172.6667" y="9">n</tspan><tspan dx="0 " x="178" y="9">T</tspan><tspan dx="0 " x="183" y="9">y</tspan><tspan dx="0 " x="187.6667" y="9">p</tspan></text><text transform="matrix(1 0 0 1 607 321)" fill="#375B1F" stroke="none"><tspan dx="0 " x="0" y="9">e</tspan><tspan dx="0 " x="4" y="9">E</tspan><tspan dx="0 " x="8" y="9">n</tspan><tspan dx="0 " x="12.33333" y="9">u</tspan><tspan dx="0 " x="16.66667" y="9">m</tspan><tspan dx="0 " x="23.66667" y="9">)</tspan><tspan dx="0 " x="26" y="9">:</tspan><tspan dx="0 " x="28" y="9"> </tspan><tspan dx="0 " x="29" y="9">I</tspan><tspan dx="0 " x="30.66667" y="9">T</tspan><tspan dx="0 " x="35" y="9">r</tspan><tspan dx="0 " x="38" y="9">a</tspan><tspan dx="0 " x="42.33333" y="9">n</tspan><tspan dx="0 " x="47" y="9">s</tspan><tspan dx="0 " x="50.33333" y="9">a</tspan><tspan dx="0 " x="54.66666" y="9">c</tspan><tspan dx="0 0 " x="58.66666" y="9">ti</tspan><tspan dx="0 " x="63.66666" y="9">o</tspan><tspan dx="0 " x="68.33333" y="9">n</tspan></text><text transform="matrix(1 0 0 1 397 334)" fill="#375B1F" stroke="none"><tspan dx="0 " x="0" y="9">+ </tspan></text><text transform="matrix(1 0 0 1 414 334)" fill="#375B1F" stroke="none"><tspan dx="0 " x="0" y="9">createTerminal(): ITerminal</tspan></text><text transform="matrix(1 0 0 1 397 347)" fill="#375B1F" stroke="none"><tspan dx="0 " x="0" y="9">- </tspan></text><text transform="matrix(1 0 0 1 414 347)" fill="#375B1F" stroke="none"><tspan dx="0 " x="0" y="9">setAccounts(List): void</tspan></text><text transform="matrix(1 0 0 1 397 360)" fill="#375B1F" stroke="none"><tspan dx="0 " x="0" y="9">- </tspan></text><text transform="matrix(1 0 0 1 414 360)" fill="#375B1F" stroke="none"><tspan dx="0 " x="0" y="9">setAmount(double): void</tspan></text><text transform="matrix(1 0 0 1 397 373)" fill="#375B1F" stroke="none"><tspan dx="0 " x="0" y="9">- </tspan></text><text transform="matrix(1 0 0 1 414 373)" fill="#375B1F" stroke="none"><tspan dx="0 " x="0" y="9">g</tspan><tspan dx="0 " x="5.333333" y="9">e</tspan><tspan dx="0 " x="10.66667" y="9">t</tspan><tspan dx="0 " x="14" y="9">T</tspan><tspan dx="0 " x="19.33333" y="9">r</tspan><tspan dx="0 " x="22.66666" y="9">a</tspan><tspan dx="0 " x="28" y="9">n</tspan><tspan dx="0 " x="33.66666" y="9">s</tspan><tspan dx="0 " x="37.33333" y="9">a</tspan><tspan dx="0 " x="42.33333" y="9">c</tspan><tspan dx="0 0 " x="46.66666" y="9">ti</tspan><tspan dx="0 " x="52.33333" y="9">o</tspan><tspan dx="0 " x="57.66666" y="9">n</tspan><tspan dx="0 " x="63" y="9">(</tspan><tspan dx="0 " x="66" y="9">)</tspan><tspan dx="0 " x="69" y="9">:</tspan><tspan dx="0 " x="71.66666" y="9"> </tspan><tspan dx="0 " x="73.66666" y="9">I</tspan><tspan dx="0 " x="76" y="9">T</tspan><tspan dx="0 " x="81" y="9">r</tspan><tspan dx="0 " x="84.33334" y="9">a</tspan><tspan dx="0 " x="89.33334" y="9">n</tspan><tspan dx="0 " x="94.66667" y="9">s</tspan><tspan dx="0 " x="98.33334" y="9">a</tspan><tspan dx="0 " x="103.3333" y="9">c</tspan><tspan dx="0 0 " x="107.6667" y="9">ti</tspan><tspan dx="0 " x="113.3333" y="9">o</tspan><tspan dx="0 " x="118.6667" y="9">n</tspan></text><path fill="#CACACA" stroke="none" d="M718 277C718 272 718 272 723 272h284C1012 272 1012 272 1012 277V388C1012 393 1012 393 1007 393H723C718 393 718 393 718 388V277" /><path stroke="none" fill="#FDFAF7" d="M715 274C715 269 715 269 720 269h284C1009 269 1009 269 1009 274V385C1009 390 1009 390 1004 390H720C715 390 715 390 715 385V274" /><path stroke="#5A5A5A" d="M715 274C715 269 715 269 720 269h284C1009 269 1009 269 1009 274V385C1009 390 1009 390 1004 390H720C715 390 715 390 715 385V274m0 0C715 269 715 269 720 269h284C1009 269 1009 269 1009 274V385C1009 390 1009 390 1004 390H720C715 390 715 390 715 385V274" /><rect stroke="#5A5A5A" x="715" y="269" width="294" height="121" /><text transform="matrix(1 0 0 1 832 278)" fill="#3C3C3C" font-weight="bold" stroke="none"><desc xmlns:eadoc="http://www.siemens.com/eauml/doc"><eadoc:guid>EAID_727F9990_7B63_4db0_93B0_8F532A7E0CC4</eadoc:guid><eadoc:name>CashInFactory</eadoc:name><eadoc:type>Class</eadoc:type><eadoc:note></eadoc:note></desc><tspan dx="0 " x="0" y="9">CashInFactory</tspan></text><path stroke="#5A5A5A" d="M715 296h294" /><text transform="matrix(1 0 0 1 720 300)" fill="#854A2C" stroke="none"><tspan dx="0 " x="0" y="9">- </tspan></text><text transform="matrix(1 0 0 1 737 300)" fill="#854A2C" stroke="none"><tspan dx="0 " x="0" y="9">t</tspan><tspan dx="0 " x="3.333333" y="9">r</tspan><tspan dx="0 " x="6.666666" y="9">a</tspan><tspan dx="0 " x="11.33333" y="9">n</tspan><tspan dx="0 " x="16.33333" y="9">s</tspan><tspan dx="0 " x="20" y="9">a</tspan><tspan dx="0 " x="24.66667" y="9">c</tspan><tspan dx="0 0 " x="29" y="9">ti</tspan><tspan dx="0 " x="34.66667" y="9">o</tspan><tspan dx="0 " x="40" y="9">n</tspan><tspan dx="0 " x="45.33333" y="9">B</tspan><tspan dx="0 " x="51" y="9">u</tspan><tspan dx="0 " x="56.33333" y="9">i</tspan><tspan dx="0 " x="58.66666" y="9">l</tspan><tspan dx="0 " x="61" y="9">d</tspan><tspan dx="0 " x="66.33333" y="9">e</tspan><tspan dx="0 " x="71.33333" y="9">r</tspan><tspan dx="0 " x="74.66666" y="9">:</tspan><tspan dx="0 " x="77.33333" y="9"> </tspan><tspan dx="0 " x="79.33333" y="9">I</tspan><tspan dx="0 " x="81.66666" y="9">T</tspan><tspan dx="0 " x="86.66666" y="9">r</tspan><tspan dx="0 " x="90" y="9">a</tspan><tspan dx="0 " x="95" y="9">n</tspan><tspan dx="0 " x="100.3333" y="9">s</tspan><tspan dx="0 " x="104" y="9">a</tspan><tspan dx="0 " x="109" y="9">c</tspan><tspan dx="0 0 " x="113.3333" y="9">ti</tspan><tspan dx="0 " x="119" y="9">o</tspan><tspan dx="0 " x="124.3333" y="9">n</tspan><tspan dx="0 " x="129.6667" y="9">B</tspan><tspan dx="0 " x="135.3333" y="9">u</tspan><tspan dx="0 " x="140.6667" y="9">i</tspan><tspan dx="0 " x="143" y="9">l</tspan><tspan dx="0 " x="145.3333" y="9">d</tspan><tspan dx="0 " x="150.6667" y="9">e</tspan><tspan dx="0 " x="155.6667" y="9">r</tspan></text><path stroke="#5A5A5A" d="M715 317h294" /><text transform="matrix(1 0 0 1 720 321)" fill="#375B1F" stroke="none"><tspan dx="0 " x="0" y="9">+ </tspan></text><text transform="matrix(1 0 0 1 737 321)" fill="#375B1F" stroke="none"><tspan dx="0 " x="0" y="9">c</tspan><tspan dx="0 " x="4.666667" y="9">r</tspan><tspan dx="0 " x="8" y="9">e</tspan><tspan dx="0 " x="13.33333" y="9">a</tspan><tspan dx="0 " x="18.66667" y="9">t</tspan><tspan dx="0 " x="22" y="9">e</tspan><tspan dx="0 " x="27.33333" y="9">T</tspan><tspan dx="0 " x="32.66666" y="9">r</tspan><tspan dx="0 " x="36" y="9">a</tspan><tspan dx="0 " x="41.33333" y="9">n</tspan><tspan dx="0 " x="46.66666" y="9">s</tspan><tspan dx="0 " x="50.33333" y="9">a</tspan><tspan dx="0 " x="55.33333" y="9">c</tspan><tspan dx="0 0 " x="59.66666" y="9">ti</tspan><tspan dx="0 " x="65.33333" y="9">o</tspan><tspan dx="0 " x="70.66666" y="9">n</tspan><tspan dx="0 " x="76" y="9">(</tspan><tspan dx="0 " x="79" y="9">L</tspan><tspan dx="0 " x="83.33334" y="9">i</tspan><tspan dx="0 " x="85.66667" y="9">s</tspan><tspan dx="0 " x="89.33334" y="9">t</tspan><tspan dx="0 " x="92.66667" y="9">,</tspan><tspan dx="0 " x="95.00001" y="9"> </tspan><tspan dx="0 " x="97.00001" y="9">d</tspan><tspan dx="0 " x="102.3333" y="9">o</tspan><tspan dx="0 " x="107.6667" y="9">u</tspan><tspan dx="0 " x="113" y="9">b</tspan><tspan dx="0 " x="118.3334" y="9">l</tspan><tspan dx="0 " x="120.6667" y="9">e</tspan><tspan dx="0 " x="125.6667" y="9">,</tspan><tspan dx="0 " x="128" y="9"> </tspan><tspan dx="0 " x="130" y="9">T</tspan><tspan dx="0 " x="135" y="9">r</tspan><tspan dx="0 " x="138.3333" y="9">a</tspan><tspan dx="0 " x="143.3333" y="9">n</tspan><tspan dx="0 " x="148.6667" y="9">s</tspan><tspan dx="0 " x="152.3333" y="9">a</tspan><tspan dx="0 " x="157.3333" y="9">c</tspan><tspan dx="0 0 " x="161.6667" y="9">ti</tspan><tspan dx="0 " x="167.3333" y="9">o</tspan><tspan dx="0 " x="172.6667" y="9">n</tspan><tspan dx="0 " x="178" y="9">T</tspan><tspan dx="0 " x="183" y="9">y</tspan><tspan dx="0 " x="187.6667" y="9">p</tspan></text><text transform="matrix(1 0 0 1 930 321)" fill="#375B1F" stroke="none"><tspan dx="0 " x="0" y="9">e</tspan><tspan dx="0 " x="4" y="9">E</tspan><tspan dx="0 " x="8" y="9">n</tspan><tspan dx="0 " x="12.33333" y="9">u</tspan><tspan dx="0 " x="16.66667" y="9">m</tspan><tspan dx="0 " x="23.66667" y="9">)</tspan><tspan dx="0 " x="26" y="9">:</tspan><tspan dx="0 " x="28" y="9"> </tspan><tspan dx="0 " x="29" y="9">I</tspan><tspan dx="0 " x="30.66667" y="9">T</tspan><tspan dx="0 " x="35" y="9">r</tspan><tspan dx="0 " x="38" y="9">a</tspan><tspan dx="0 " x="42.33333" y="9">n</tspan><tspan dx="0 " x="47" y="9">s</tspan><tspan dx="0 " x="50.33333" y="9">a</tspan><tspan dx="0 " x="54.66666" y="9">c</tspan><tspan dx="0 0 " x="58.66666" y="9">ti</tspan><tspan dx="0 " x="63.66666" y="9">o</tspan><tspan dx="0 " x="68.33333" y="9">n</tspan></text><text transform="matrix(1 0 0 1 720 334)" fill="#375B1F" stroke="none"><tspan dx="0 " x="0" y="9">+ </tspan></text><text transform="matrix(1 0 0 1 737 334)" fill="#375B1F" stroke="none"><tspan dx="0 " x="0" y="9">createTerminal(): ITerminal</tspan></text><text transform="matrix(1 0 0 1 720 347)" fill="#375B1F" stroke="none"><tspan dx="0 " x="0" y="9">- </tspan></text><text transform="matrix(1 0 0 1 737 347)" fill="#375B1F" stroke="none"><tspan dx="0 " x="0" y="9">setAccounts(List): void</tspan></text><text transform="matrix(1 0 0 1 720 360)" fill="#375B1F" stroke="none"><tspan dx="0 " x="0" y="9">- </tspan></text><text transform="matrix(1 0 0 1 737 360)" fill="#375B1F" stroke="none"><tspan dx="0 " x="0" y="9">setAmount(double): void</tspan></text><text transform="matrix(1 0 0 1 720 373)" fill="#375B1F" stroke="none"><tspan dx="0 " x="0" y="9">- </tspan></text><text transform="matrix(1 0 0 1 737 373)" fill="#375B1F" stroke="none"><tspan dx="0 " x="0" y="9">g</tspan><tspan dx="0 " x="5.333333" y="9">e</tspan><tspan dx="0 " x="10.66667" y="9">t</tspan><tspan dx="0 " x="14" y="9">T</tspan><tspan dx="0 " x="19.33333" y="9">r</tspan><tspan dx="0 " x="22.66666" y="9">a</tspan><tspan dx="0 " x="28" y="9">n</tspan><tspan dx="0 " x="33.66666" y="9">s</tspan><tspan dx="0 " x="37.33333" y="9">a</tspan><tspan dx="0 " x="42.33333" y="9">c</tspan><tspan dx="0 0 " x="46.66666" y="9">ti</tspan><tspan dx="0 " x="52.33333" y="9">o</tspan><tspan dx="0 " x="57.66666" y="9">n</tspan><tspan dx="0 " x="63" y="9">(</tspan><tspan dx="0 " x="66" y="9">)</tspan><tspan dx="0 " x="69" y="9">:</tspan><tspan dx="0 " x="71.66666" y="9"> </tspan><tspan dx="0 " x="73.66666" y="9">I</tspan><tspan dx="0 " x="76" y="9">T</tspan><tspan dx="0 " x="81" y="9">r</tspan><tspan dx="0 " x="84.33334" y="9">a</tspan><tspan dx="0 " x="89.33334" y="9">n</tspan><tspan dx="0 " x="94.66667" y="9">s</tspan><tspan dx="0 " x="98.33334" y="9">a</tspan><tspan dx="0 " x="103.3333" y="9">c</tspan><tspan dx="0 0 " x="107.6667" y="9">ti</tspan><tspan dx="0 " x="113.3333" y="9">o</tspan><tspan dx="0 " x="118.6667" y="9">n</tspan></text><path stroke="#696969" d="M642 200l7 4m4 2l7 4m4 2l7 5m4 2l7 4m4 2l7 5m4 2l7 4m4 2l7 5m4 2l7 4m4 2l7 5m4 2l7 4m4 2l7 5" /><path stroke="#696969" fill="#F9E5C6" d="M658 202l-6 11L642 200l16 2" /><path stroke="#696969" d="M559 200l-1 7m0 4l-1 7m-1 4l-1 7m-1 4l-1 7m-1 4l-1 7m0 4l-1 7m-1 4l-1 3" /><path stroke="#696969" fill="#F9E5C6" d="M563 216l-12 -2l8 -14l4 16" /><path stroke="#696969" d="M476 200l-7 3m-4 2l-7 3m-4 2l-7 4m-4 2l-7 3m-4 2l-7 4m-4 2l-7 3m-4 2l-7 4m-4 2l-7 3m-4 2l-7 4m-4 2l-7 3m-4 2l-7 4m-4 2l-7 3m-4 2l-7 4" /><path stroke="#696969" fill="#F9E5C6" d="M465 212l-5 -11l16 -1l-11 12" /><path stroke="#696969" d="M420 154H363" /><path stroke="#696969" fill="#696969" d="M373 149l-10 5l10 5l10 -5l-10 -5" /><path stroke="#696969" stroke-dasharray="7,4" d="M219 100L219 44" /><path stroke="#696969" d="M219 100L214 85m5 15l5 -15" /></g></g></g></g></svg>